<svg width="24" height="24" viewBox="0 0 24 24" fill="none" xmlns="http://www.w3.org/2000/svg">
<circle cx="12" cy="12" r="12" fill="#222222" fill-opacity="0.5"/>
<path d="M10.6408 6.56302C11.3914 5.81233 12.6086 5.81233 13.3592 6.56302L14.0389 7.24264C14.7896 7.99333 14.7896 9.21044 14.0389 9.96113L13.3592 10.6408C12.6086 11.3914 11.3914 11.3914 10.6408 10.6408L9.96113 9.96113C9.21044 9.21044 9.21044 7.99333 9.96113 7.24264L10.6408 6.56302Z" fill="white"/>
<path d="M7.24264 9.96113C7.99333 9.21044 9.21044 9.21044 9.96113 9.96113L10.6408 10.6408C11.3914 11.3914 11.3914 12.6086 10.6408 13.3592L9.96113 14.0389C9.21044 14.7896 7.99333 14.7896 7.24264 14.0389L6.56302 13.3592C5.81233 12.6086 5.81233 11.3914 6.56302 10.6408L7.24264 9.96113Z" fill="white"/>
<path d="M14.0389 9.96113C14.7896 9.21044 16.0067 9.21044 16.7574 9.96113L17.437 10.6408C18.1877 11.3914 18.1877 12.6086 17.437 13.3592L16.7574 14.0389C16.0067 14.7896 14.7896 14.7896 14.0389 14.0389L13.3592 13.3592C12.6086 12.6086 12.6086 11.3914 13.3592 10.6408L14.0389 9.96113Z" fill="white"/>
<path d="M10.6408 13.3592C11.3914 12.6086 12.6086 12.6086 13.3592 13.3592L14.0389 14.0389C14.7896 14.7896 14.7896 16.0067 14.0389 16.7574L13.3592 17.437C12.6086 18.1877 11.3914 18.1877 10.6408 17.437L9.96113 16.7574C9.21044 16.0067 9.21044 14.7896 9.96113 14.0389L10.6408 13.3592Z" fill="white"/>
</svg>
