<svg width="20" height="20" viewBox="0 0 20 20" fill="none" xmlns="http://www.w3.org/2000/svg">
<g clip-path="url(#clip0_280_958)">
<path d="M16.5227 7.1362C16.4158 7.2172 14.5289 8.2558 14.5289 10.5652C14.5289 13.2364 16.93 14.1814 17.0018 14.2048C16.9908 14.2624 16.6204 15.499 15.7359 16.759C14.9472 17.8678 14.1235 18.9748 12.8704 18.9748C11.6173 18.9748 11.2948 18.2638 9.84828 18.2638C8.43857 18.2638 7.93735 18.9982 6.79115 18.9982C5.64496 18.9982 4.84521 17.9722 3.92568 16.7122C2.86057 15.2326 2 12.934 2 10.7524C2 7.2532 4.32924 5.3974 6.62162 5.3974C7.83968 5.3974 8.85504 6.1786 9.61978 6.1786C10.3477 6.1786 11.4828 5.3506 12.8685 5.3506C13.3937 5.3506 15.2807 5.3974 16.5227 7.1362ZM12.2107 3.8692C12.7838 3.205 13.1892 2.2834 13.1892 1.3618C13.1892 1.234 13.1781 1.1044 13.1542 1C12.2217 1.0342 11.1124 1.6066 10.4435 2.3644C9.9183 2.9476 9.42813 3.8692 9.42813 4.8034C9.42813 4.9438 9.45209 5.0842 9.46314 5.1292C9.52211 5.14 9.61794 5.1526 9.71376 5.1526C10.5504 5.1526 11.6026 4.6054 12.2107 3.8692Z" fill="black"/>
</g>
<defs>
<clipPath id="clip0_280_958">
<rect width="15" height="18" fill="white" transform="translate(2 1)"/>
</clipPath>
</defs>
</svg>
