<svg width="20" height="20" viewBox="0 0 20 20" fill="none" xmlns="http://www.w3.org/2000/svg">
<g clip-path="url(#clip0_279_270)">
<path d="M5.83341 17.2183V15.8333C5.83341 15.3913 6.00901 14.9673 6.32157 14.6548C6.63413 14.3422 7.05805 14.1666 7.50008 14.1666H12.5001C12.9421 14.1666 13.366 14.3422 13.6786 14.6548C13.9912 14.9673 14.1667 15.3913 14.1667 15.8333V17.2183M18.3334 9.99996C18.3334 14.6023 14.6025 18.3333 10.0001 18.3333C5.39771 18.3333 1.66675 14.6023 1.66675 9.99996C1.66675 5.39759 5.39771 1.66663 10.0001 1.66663C14.6025 1.66663 18.3334 5.39759 18.3334 9.99996ZM12.5001 8.33329C12.5001 9.714 11.3808 10.8333 10.0001 10.8333C8.61937 10.8333 7.50008 9.714 7.50008 8.33329C7.50008 6.95258 8.61937 5.83329 10.0001 5.83329C11.3808 5.83329 12.5001 6.95258 12.5001 8.33329Z" stroke="#222222" stroke-width="1.6" stroke-linecap="round" stroke-linejoin="round"/>
</g>
<defs>
<clipPath id="clip0_279_270">
<rect width="20" height="20" fill="white"/>
</clipPath>
</defs>
</svg>
