<svg width="20" height="20" viewBox="0 0 20 20" fill="none" xmlns="http://www.w3.org/2000/svg">
<path d="M10.0001 5.83333V17.5M10.0001 5.83333C10.0001 4.94928 9.64889 4.10143 9.02377 3.47631C8.39865 2.85119 7.5508 2.5 6.66675 2.5H2.50008C2.27907 2.5 2.06711 2.5878 1.91083 2.74408C1.75455 2.90036 1.66675 3.11232 1.66675 3.33333V14.1667C1.66675 14.3877 1.75455 14.5996 1.91083 14.7559C2.06711 14.9122 2.27907 15 2.50008 15H7.50008C8.16312 15 8.79901 15.2634 9.26785 15.7322C9.73669 16.2011 10.0001 16.837 10.0001 17.5M10.0001 5.83333C10.0001 4.94928 10.3513 4.10143 10.9764 3.47631C11.6015 2.85119 12.4494 2.5 13.3334 2.5H17.5001C17.7211 2.5 17.9331 2.5878 18.0893 2.74408C18.2456 2.90036 18.3334 3.11232 18.3334 3.33333V14.1667C18.3334 14.3877 18.2456 14.5996 18.0893 14.7559C17.9331 14.9122 17.7211 15 17.5001 15H12.5001C11.837 15 11.2012 15.2634 10.7323 15.7322C10.2635 16.2011 10.0001 16.837 10.0001 17.5" stroke="#222222" stroke-width="1.6" stroke-linecap="round" stroke-linejoin="round"/>
</svg>
