<svg width="224" height="44" viewBox="0 0 224 44" fill="none" xmlns="http://www.w3.org/2000/svg">
<path d="M148.566 42.6667V10.6667H153.686V16.1067H154.966C155.179 15.2178 155.553 14.3289 156.086 13.44C156.619 12.5511 157.473 11.8222 158.646 11.2533C159.819 10.6489 161.473 10.3467 163.606 10.3467H164.673V15.7867H163.073C159.873 15.7867 157.615 16.6222 156.299 18.2933C154.984 19.9289 154.326 22.5067 154.326 26.0267V42.6667H148.566Z" fill="#222222"/>
<path d="M128.697 43.4666C124.003 43.4666 120.43 41.9377 117.977 38.8799C115.559 35.7866 114.35 31.7155 114.35 26.6666C114.35 23.3244 114.883 20.4088 115.95 17.9199C117.052 15.3955 118.652 13.4221 120.75 11.9999C122.883 10.5777 125.515 9.86658 128.643 9.86658C133.017 9.86658 136.341 11.2888 138.617 14.1332C140.928 16.9777 142.083 21.1021 142.083 26.5066V28.1599H119.95C120.128 31.2888 120.928 33.8666 122.35 35.8932C123.808 37.8844 125.941 38.8799 128.75 38.8799C130.777 38.8799 132.412 38.311 133.657 37.1732C134.901 36.0355 135.79 34.4532 136.323 32.4266H141.763C141.301 34.5955 140.537 36.5155 139.47 38.1866C138.403 39.8221 136.981 41.1199 135.203 42.0799C133.426 43.0044 131.257 43.4666 128.697 43.4666ZM120.003 23.9999H136.483C136.377 20.9066 135.63 18.5421 134.243 16.9066C132.857 15.271 130.972 14.4532 128.59 14.4532C126.066 14.4532 124.075 15.2888 122.617 16.9599C121.195 18.631 120.323 20.9777 120.003 23.9999Z" fill="#222222"/>
<path d="M92.8817 42.6666L83.175 10.9866V10.6666H88.9351L96.9884 37.8666H98.2684L106.322 10.6666H111.655V10.9866L101.948 42.6666H92.8817Z" fill="#222222"/>
<path d="M67.6018 43.4666C62.9085 43.4666 59.3351 41.9377 56.8818 38.8799C54.464 35.7866 53.2551 31.7155 53.2551 26.6666C53.2551 23.3244 53.7885 20.4088 54.8551 17.9199C55.9573 15.3955 57.5573 13.4221 59.6551 11.9999C61.7885 10.5777 64.4196 9.86658 67.5485 9.86658C71.9218 9.86658 75.2462 11.2888 77.5218 14.1332C79.8329 16.9777 80.9885 21.1021 80.9885 26.5066V28.1599H58.8551C59.0329 31.2888 59.8329 33.8666 61.2551 35.8932C62.7129 37.8844 64.8462 38.8799 67.6551 38.8799C69.6818 38.8799 71.3173 38.311 72.5618 37.1732C73.8062 36.0355 74.6951 34.4532 75.2285 32.4266H80.6685C80.2062 34.5955 79.4418 36.5155 78.3751 38.1866C77.3085 39.8221 75.8862 41.1199 74.1085 42.0799C72.3307 43.0044 70.1618 43.4666 67.6018 43.4666ZM58.9085 23.9999H75.3885C75.2818 20.9066 74.5351 18.5421 73.1485 16.9066C71.7618 15.271 69.8773 14.4532 67.4951 14.4532C64.9707 14.4532 62.9796 15.2888 61.5218 16.9599C60.0996 18.631 59.2285 20.9777 58.9085 23.9999Z" fill="#222222"/>
<path d="M43.4908 42.6667C42.7086 41.7067 42.0686 40.5511 41.5708 39.2C41.1086 37.8489 40.8774 35.8222 40.8774 33.12V0H46.6374V32.3733C46.6374 35.2178 46.9397 37.3511 47.5441 38.7733C48.1841 40.1956 48.9486 41.3867 49.8374 42.3467V42.6667H43.4908Z" fill="#222222"/>
<path d="M18.24 43.4666C12.5156 43.4666 8.03556 41.5822 4.8 37.8133C1.6 34.0088 0 28.6933 0 21.8666C0 15.0044 1.61778 9.68882 4.85333 5.91994C8.08889 2.15105 12.5511 0.266602 18.24 0.266602C21.5467 0.266602 24.4089 0.906602 26.8267 2.1866C29.28 3.43105 31.2178 5.19105 32.64 7.4666C34.0978 9.74216 34.9689 12.4088 35.2533 15.4666H29.2267C28.8711 12.3022 27.7156 9.77771 25.76 7.89327C23.84 6.00882 21.2978 5.0666 18.1333 5.0666C14.2578 5.0666 11.2711 6.54216 9.17333 9.49327C7.11111 12.4088 6.08 16.5333 6.08 21.8666C6.08 27.2355 7.12889 31.3777 9.22667 34.2933C11.36 37.2088 14.3111 38.6666 18.08 38.6666C21.4222 38.6666 24.0356 37.671 25.92 35.6799C27.84 33.6888 28.9422 31.2177 29.2267 28.2666H35.2533C34.9689 31.2888 34.0978 33.9555 32.64 36.2666C31.2178 38.5422 29.2978 40.3199 26.88 41.5999C24.4622 42.8444 21.5822 43.4666 18.24 43.4666Z" fill="#222222"/>
<path d="M204.135 2.16801C206.137 0.166165 209.383 0.166166 211.385 2.16801L213.197 3.98033C215.199 5.98218 215.199 9.2278 213.197 11.2296L211.385 13.042C209.383 15.0438 206.137 15.0438 204.135 13.042L202.323 11.2296C200.321 9.2278 200.321 5.98218 202.323 3.98033L204.135 2.16801Z" fill="#222222"/>
<path d="M195.074 11.2296C197.076 9.2278 200.321 9.2278 202.323 11.2296L204.135 13.042C206.137 15.0438 206.137 18.2894 204.135 20.2913L202.323 22.1036C200.321 24.1055 197.076 24.1055 195.074 22.1036L193.261 20.2913C191.26 18.2894 191.26 15.0438 193.261 13.042L195.074 11.2296Z" fill="#222222"/>
<path d="M213.197 11.2296C215.199 9.2278 218.444 9.2278 220.446 11.2296L222.259 13.042C224.26 15.0438 224.26 18.2894 222.259 20.2913L220.446 22.1036C218.444 24.1055 215.199 24.1055 213.197 22.1036L211.385 20.2913C209.383 18.2894 209.383 15.0438 211.385 13.042L213.197 11.2296Z" fill="#222222"/>
<path d="M204.135 20.2913C206.137 18.2894 209.383 18.2894 211.385 20.2913L213.197 22.1036C215.199 24.1055 215.199 27.3511 213.197 29.3529L211.385 31.1652C209.383 33.1671 206.137 33.1671 204.135 31.1652L202.323 29.3529C200.321 27.3511 200.321 24.1055 202.323 22.1036L204.135 20.2913Z" fill="#222222"/>
</svg>
